{"title":"Queen (2014) - 720p - DVDRip - x264 - AC3 - SAP [DDR]","uid":10050751,"size":2983309430,"categoryP":"video","categoryS":"hd___movies","magnet":"?xt=urn:btih:593858a60ae1aa6e2adccdcfecc4fcbd9a4c67b0&amp;dn=Queen+%282014%29+-+720p+-+DVDRip+-+x264+-+AC3+-+SAP+%5BDDR%5D&amp;tr=udp%3A%2F%2Ftracker.openbittorrent.com%3A80&amp;tr=udp%3A%2F%2Fopen.demonii.com%3A1337&amp;tr=udp%3A%2F%2Ftracker.coppersurfer.tk%3A6969&amp;tr=udp%3A%2F%2Fexodus.desync.com%3A6969","seeders":7,"leechers":1,"uploader":"SaM","files":12,"time":1398605045,"description":"- BollyWooD MoviE -\nQUEEN\n\n**720p DVDRip / x264 / 5.1 AC3 / SAP**\n\nGeneral\nComplete name                            : Queen (2014) - 720p - DVDRip - x264 - AC3 - SAP [DDR].mp4\nFormat                                  : MPEG-4\nFormat profile                          : Base Media\nCodec ID                                : isom\nFile size                                : 2.74 GiB\nDuration                                : 2h 25mn\n\nVideo\nID                                      : 1\nFormat                                  : AVC\nFormat/Info                              : Advanced Video Codec\nFormat profile                          : &lt;a class=&quot;__cf_email__&quot; href=&quot;/cdn-cgi/l/email-protection&quot; data-cfemail=&quot;c088a9a7a8808cf4eef1&quot;&gt;[email&amp;#160;protected]&lt;/a&gt;&lt;script cf-hash='f9e31' type=&quot;text/javascript&quot;&gt;\n/* &lt;![CDATA[ */!function(){try{var t=&quot;currentScript&quot;in document?document.currentScript:function(){for(var t=document.getElementsByTagName(&quot;script&quot;),e=t.length;e--;)if(t[e].getAttribute(&quot;cf-hash&quot;))return t[e]}();if(t&amp;&amp;t.previousSibling){var e,r,n,i,c=t.previousSibling,a=c.getAttribute(&quot;data-cfemail&quot;);if(a){for(e=&quot;&quot;,r=parseInt(a.substr(0,2),16),n=2;a.length-n;n+=2)i=parseInt(a.substr(n,2),16)^r,e+=String.fromCharCode(i);e=document.createTextNode(e),c.parentNode.replaceChild(e,c)}}}catch(u){}}();/* ]]&gt; */&lt;/script&gt;\nFormat settings, CABAC                  : Yes\nFormat settings, ReFrames                : 5 frames\nCodec ID                                : avc1\nCodec ID/Info                            : Advanced Video Coding\nDuration                                : 2h 25mn\nBit rate                                : 2 259 Kbps\nMaximum bit rate                        : 10.2 Mbps\nWidth                                    : 1 280 pixels\nHeight                                  : 544 pixels\nDisplay aspect ratio                    : 2.35:1\nFrame rate mode                          : Constant\nFrame rate                              : 23.976 fps\nColor space                              : YUV\nChroma subsampling                      : 4:2:0\nBit depth                                : 8 bits\nScan type                                : Progressive\nBits/(Pixel*Frame)                      : 0.135\nStream size                              : 2.29 GiB (83%)\nTitle                                    : Track 1 [DDR]\n\nAudio\nID                                      : 2\nFormat                                  : AC-3\nFormat/Info                              : Audio Coding 3\nMode extension                          : CM (complete main)\nFormat settings, Endianness              : Big\nCodec ID                                : ac-3\nDuration                                : 2h 25mn\nBit rate mode                            : Constant\nBit rate                                : 448 Kbps\nChannel(s)                              : 6 channels\nChannel positions                        : Front: L C R, Side: L R, LFE\nSampling rate                            : 48.0 KHz\nBit depth                                : 16 bits\nCompression mode                        : Lossy\nStream size                              : 465 MiB (17%)\nTitle                                    : Track 1 [DDR]\nLanguage                                : Hindi\n\n\n[ SCREENS ]\n\n &lt;a href=&quot;\nhttp://img834.imageshack.us/img834/6049/3z52.png&quot; rel=&quot;nofollow&quot; target=&quot;_NEW&quot;&gt;\nhttp://img834.imageshack.us/img834/6049/3z52.png&lt;/a&gt;\n &lt;a href=&quot;\nhttp://img841.imageshack.us/img841/3222/42rz.png&quot; rel=&quot;nofollow&quot; target=&quot;_NEW&quot;&gt;\nhttp://img841.imageshack.us/img841/3222/42rz.png&lt;/a&gt;\n &lt;a href=&quot;\nhttp://img842.imageshack.us/img842/7778/kuqj.png&quot; rel=&quot;nofollow&quot; target=&quot;_NEW&quot;&gt;\nhttp://img842.imageshack.us/img842/7778/kuqj.png&lt;/a&gt;\n &lt;a href=&quot;\nhttp://img841.imageshack.us/img841/126/t8co.png&quot; rel=&quot;nofollow&quot; target=&quot;_NEW&quot;&gt;\nhttp://img841.imageshack.us/img841/126/t8co.png&lt;/a&gt;\n &lt;a href=&quot;\nhttp://img842.imageshack.us/img842/1481/sejh.png&quot; rel=&quot;nofollow&quot; target=&quot;_NEW&quot;&gt;\nhttp://img842.imageshack.us/img842/1481/sejh.png&lt;/a&gt;\n &lt;a href=&quot;\nhttp://img841.imageshack.us/img841/422/7u5a.png&quot; rel=&quot;nofollow&quot; target=&quot;_NEW&quot;&gt;\nhttp://img841.imageshack.us/img841/422/7u5a.png&lt;/a&gt;\n &lt;a href=&quot;\nhttp://img842.imageshack.us/img842/3323/v8ii.png&quot; rel=&quot;nofollow&quot; target=&quot;_NEW&quot;&gt;\nhttp://img842.imageshack.us/img842/3323/v8ii.png&lt;/a&gt;\n\n\n\n[ NOTICE ]\n\nEnglish Subs Included","torrent":{"xt":"urn:btih:593858a60ae1aa6e2adccdcfecc4fcbd9a4c67b0","amp;dn":"Queen+%282014%29+-+720p+-+DVDRip+-+x264+-+AC3+-+SAP+%5BDDR%5D","amp;tr":["udp%3A%2F%2Ftracker.openbittorrent.com%3A80","udp%3A%2F%2Fopen.demonii.com%3A1337","udp%3A%2F%2Ftracker.coppersurfer.tk%3A6969","udp%3A%2F%2Fexodus.desync.com%3A6969"],"infoHash":"593858a60ae1aa6e2adccdcfecc4fcbd9a4c67b0","infoHashBuffer":{"type":"Buffer","data":[89,56,88,166,10,225,170,110,42,220,205,207,236,196,252,189,154,76,103,176]},"announce":[],"urlList":[]}}